<svg xmlns="http://www.w3.org/2000/svg" viewBox="0 0 1280 400" width="1280" height="400" role="img" aria-labelledby="title desc">
<title id="title">unskein</title>
<desc id="desc">A tangled skein of threads on the left straightens into five ordered lanes ending in module nodes, beside the unskein wordmark.</desc>
<style>
:root { --bg:#F2F4F8; --ink:#1A2340; --muted:#56607A; --grid:#DCE1EC;
  --t1:#3444A8; --t2:#D69A1C; --t3:#18877A; --t4:#C2416F; --t5:#6A3F99; }
@media (prefers-color-scheme: dark) {
  :root { --bg:#151B30; --ink:#EEF1F8; --muted:#A3ACC4; --grid:#232B45;
    --t1:#7F8FF0; --t2:#F2BC4B; --t3:#3FC2AE; --t4:#EE7AA3; --t5:#B08BE6; }
}
.bg { fill:var(--bg); }
.rule { stroke:var(--grid); stroke-width:1; }
.thread { fill:none; stroke-width:3.2; stroke-linecap:round; stroke-linejoin:round; }
.node { fill:var(--bg); stroke-width:3.2; }
.t1 { stroke:var(--t1); } .t2 { stroke:var(--t2); } .t3 { stroke:var(--t3); }
.t4 { stroke:var(--t4); } .t5 { stroke:var(--t5); }
.word { fill:var(--ink);
  font-family:'Avenir Next','Segoe UI Variable Display','Segoe UI',
    'Helvetica Neue',Arial,sans-serif;
  font-weight:800; font-size:112px; letter-spacing:-4px; }
.tag { fill:var(--muted);
  font-family:'Avenir Next','Segoe UI','Helvetica Neue',Arial,sans-serif;
  font-weight:500; font-size:24px; letter-spacing:-0.2px; }
</style>
<rect class="bg" width="1280" height="400"/>
<line class="rule" x1="520" y1="214" x2="1240" y2="214"/><line class="rule" x1="520" y1="238" x2="1240" y2="238"/><line class="rule" x1="520" y1="262" x2="1240" y2="262"/><line class="rule" x1="520" y1="286" x2="1240" y2="286"/><line class="rule" x1="520" y1="310" x2="1240" y2="310"/>
<g><path class="thread t1" d="M204.3,249.7 C205.3,235.9 192.1,172.8 210.2,167.1 C228.3,161.3 313.3,194.4 312.9,215.0 C312.4,235.6 235.9,296.1 207.4,290.6 C178.9,285.1 135.0,202.9 141.9,182.0 C148.9,161.0 219.0,145.7 249.1,164.7 C279.3,183.7 335.3,284.1 322.8,296.0 C310.4,307.9 187.6,273.7 174.3,236.3 C161.0,198.8 222.4,68.2 243.0,71.0 C263.5,73.9 307.0,231.9 297.4,253.4 C287.9,274.9 186.3,213.9 185.6,200.2 C184.8,186.4 282.4,162.7 293.1,170.7 C303.9,178.7 283.7,241.4 250.1,248.1 C216.5,254.7 65.7,217.3 91.6,210.7 C117.4,204.1 343.3,208.0 405.0,208.6 C466.7,209.2 442.8,213.1 462.0,214.0 C481.2,214.9 510.3,214.0 520.0,214.0 L1196,214"/><path class="thread t2" d="M128.1,155.1 C159.0,154.1 292.7,134.8 313.9,148.8 C335.0,162.8 288.0,224.0 254.8,239.1 C221.6,254.1 117.0,256.1 114.5,239.3 C112.0,222.5 209.0,134.7 239.8,138.2 C270.7,141.8 321.1,239.9 299.5,260.5 C278.0,281.0 119.7,280.6 110.7,261.6 C101.7,242.7 214.1,145.1 245.6,146.7 C277.1,148.3 323.1,264.6 299.4,271.3 C275.8,278.0 103.0,218.0 103.7,186.6 C104.4,155.2 270.5,72.1 303.6,82.9 C336.8,93.6 324.5,229.5 302.8,251.2 C281.0,272.8 182.6,226.3 173.1,212.7 C163.5,199.1 207.0,168.4 245.6,169.3 C284.3,170.3 368.9,206.8 405.0,218.2 C441.1,229.6 442.8,234.7 462.0,238.0 C481.2,241.3 510.3,238.0 520.0,238.0 L1148,238"/><path class="thread t3" d="M240.0,110.7 C245.3,135.8 292.1,248.1 272.0,261.5 C252.0,274.8 115.8,209.9 119.7,190.5 C123.6,171.1 278.3,120.5 295.2,145.2 C312.1,170.0 249.0,338.2 221.1,338.9 C193.3,339.6 114.3,186.2 128.3,149.5 C142.4,112.8 282.1,87.0 305.5,118.8 C328.9,150.6 291.4,331.9 268.7,340.1 C246.0,348.4 158.7,200.0 169.4,168.4 C180.1,136.7 315.2,132.1 332.9,150.3 C350.6,168.6 301.1,266.5 275.5,277.9 C249.8,289.3 191.2,249.7 179.0,218.7 C166.8,187.7 182.1,94.9 202.1,92.1 C222.2,89.3 265.4,179.2 299.2,201.8 C333.0,224.4 377.9,217.8 405.0,227.8 C432.1,237.8 442.8,256.3 462.0,262.0 C481.2,267.7 510.3,262.0 520.0,262.0 L1210,262"/><path class="thread t4" d="M263.8,174.2 C263.9,193.9 289.3,298.2 264.3,292.3 C239.4,286.3 107.6,154.0 114.0,138.5 C120.4,122.9 288.1,176.6 302.7,199.0 C317.3,221.4 221.6,293.2 201.6,272.7 C181.6,252.1 168.1,88.2 182.8,75.8 C197.6,63.4 283.7,167.1 290.1,198.3 C296.4,229.5 245.7,271.8 221.0,263.2 C196.2,254.6 134.7,159.9 141.6,146.8 C148.4,133.7 244.7,163.0 262.0,184.7 C279.3,206.4 274.3,282.6 245.3,276.9 C216.2,271.3 74.9,169.1 87.8,150.8 C100.6,132.6 302.8,141.1 322.3,167.4 C341.8,193.6 191.1,296.7 204.8,308.4 C218.6,320.1 362.1,241.1 405.0,237.4 C447.9,233.7 442.8,277.9 462.0,286.0 C481.2,294.1 510.3,286.0 520.0,286.0 L1120,286"/><path class="thread t5" d="M338.3,136.1 C314.2,166.7 222.6,315.9 193.3,319.2 C164.0,322.5 142.2,186.7 162.6,156.2 C183.0,125.7 299.6,122.9 315.7,136.4 C331.7,150.0 282.0,222.8 258.7,237.7 C235.5,252.6 181.2,237.7 176.1,225.6 C171.0,213.6 209.4,169.0 227.9,165.5 C246.5,161.9 288.8,185.6 287.5,204.2 C286.3,222.8 254.0,280.5 220.4,277.1 C186.9,273.6 77.9,201.3 86.4,183.6 C94.9,165.9 241.4,156.7 271.5,170.8 C301.7,184.8 283.3,261.6 267.4,267.9 C251.5,274.3 163.3,235.7 176.1,208.9 C188.9,182.2 306.2,101.1 344.3,107.5 C382.5,113.8 385.4,213.2 405.0,247.0 C424.6,280.8 442.8,299.5 462.0,310.0 C481.2,320.5 510.3,310.0 520.0,310.0 L1172,310"/></g>
<g><circle class="node t1" cx="1196" cy="214" r="6.5"/><circle class="node t2" cx="1148" cy="238" r="6.5"/><circle class="node t3" cx="1210" cy="262" r="6.5"/><circle class="node t4" cx="1120" cy="286" r="6.5"/><circle class="node t5" cx="1172" cy="310" r="6.5"/></g>
<text class="word" x="510" y="166">unskein</text>
<text class="tag" x="520" y="360">Untangle the dependencies of your Python project.</text>
</svg>
